<?xml version="1.0" standalone="no"?>
<!DOCTYPE svg PUBLIC "-//W3C//DTD SVG 20010904//EN"
 "http://www.w3.org/TR/2001/REC-SVG-20010904/DTD/svg10.dtd">
<svg version="1.0" xmlns="http://www.w3.org/2000/svg"
 width="512.000000pt" height="512.000000pt" viewBox="0 0 512.000000 512.000000"
 preserveAspectRatio="xMidYMid meet">
<metadata>
Created by potrace 1.14, written by Peter Selinger 2001-2017
</metadata>
<g transform="translate(0.000000,512.000000) scale(0.100000,-0.100000)"
fill="#000000" stroke="none">
<path d="M2517 4754 c-1 -1 -52 -4 -113 -8 -410 -23 -822 -178 -1174 -440
-120 -90 -316 -284 -406 -402 -73 -97 -76 -101 -127 -179 -30 -47 -43 -71
-112 -200 -100 -189 -186 -492 -214 -750 -8 -76 -6 -407 3 -470 2 -16 7 -52
11 -80 4 -27 14 -79 22 -115 8 -36 17 -76 19 -90 6 -30 60 -205 74 -237 6 -13
14 -33 18 -45 27 -73 151 -309 208 -394 260 -391 630 -685 1064 -847 84 -31
248 -80 313 -93 66 -13 184 -30 271 -39 62 -7 318 -7 371 -1 17 2 59 7 94 11
116 13 292 54 430 101 535 180 989 573 1247 1076 68 134 147 337 169 437 31
139 45 202 49 231 28 169 28 489 2 660 -11 67 -20 113 -31 160 -8 30 -16 66
-19 80 -23 123 -156 431 -259 597 -144 231 -381 484 -587 626 -197 136 -369
223 -580 297 -50 18 -164 50 -192 55 -15 3 -59 12 -96 19 -103 22 -440 52
-455 40z"/>
</g>
</svg>
